<svg width="48" height="48" viewBox="0 0 48 48" fill="none" xmlns="http://www.w3.org/2000/svg">
<path d="M36.4074 20.7746C36.3477 20.7746 36.2877 20.7664 36.2289 20.7497C36.0124 20.6881 35.843 20.5189 35.781 20.3025C35.4008 18.9755 34.8226 17.7123 34.0626 16.548C33.3023 15.3833 32.3787 14.3456 31.3173 13.4638C31.1441 13.3199 31.0574 13.0967 31.0881 12.8737C31.1189 12.6506 31.2625 12.4592 31.4683 12.3674C35.2809 10.6672 38.3502 9.76855 40.3442 9.76855C41.5759 9.76855 42.4265 10.1148 42.8722 10.7978C44.3413 13.0486 40.4056 17.3736 36.8453 20.6055C36.7238 20.7157 36.5672 20.7746 36.4074 20.7746ZM32.9271 13.1538C33.767 13.9559 34.5136 14.8547 35.1539 15.8357C35.7941 16.8163 36.3162 17.8614 36.7126 18.9534C40.9289 14.9803 42.3144 12.3273 41.781 11.51C41.5965 11.2273 41.0864 11.0717 40.3443 11.0717C38.7137 11.0717 36.1029 11.807 32.9271 13.1538Z" fill="#E58C71"/>
<path d="M4.61523 38.4485C4.61502 38.4485 4.61502 38.4485 4.6148 38.4485C3.3832 38.4483 2.53266 38.1022 2.08698 37.4193C0.617879 35.1685 4.55355 30.8435 8.11391 27.6115C8.28072 27.4601 8.51377 27.4056 8.73031 27.4673C8.94685 27.529 9.11626 27.6981 9.17827 27.9145C9.55825 29.2409 10.1363 30.5042 10.8965 31.6691C11.6569 32.8339 12.5806 33.8715 13.6419 34.7532C13.8152 34.8971 13.9018 35.1203 13.8711 35.3433C13.8404 35.5665 13.6967 35.7578 13.491 35.8495C9.67836 37.5498 6.60897 38.4485 4.61523 38.4485ZM8.24651 29.2637C4.03022 33.2369 2.64485 35.8899 3.17828 36.7071C3.36267 36.9897 3.87286 37.1453 4.61491 37.1453C4.61502 37.1453 4.61513 37.1453 4.61523 37.1453C6.2455 37.1453 8.85585 36.4102 12.032 35.0634C11.1922 34.2612 10.4456 33.3624 9.8052 32.3816C9.16491 31.4005 8.64267 30.3552 8.24651 29.2637Z" fill="#E58C71"/>
<path d="M22.495 39.245C22.4947 39.245 22.4944 39.245 22.494 39.245C18.9569 39.2448 15.5174 38.0055 12.8091 35.7554C11.6471 34.7899 10.6365 33.6546 9.80521 32.381C8.97368 31.1071 8.34132 29.7249 7.92539 28.2732C7.05357 25.2299 7.17292 21.9075 8.26161 18.9179C9.38765 15.8256 11.4435 13.2377 14.207 11.434C16.6749 9.82319 19.5305 8.97168 22.4652 8.97168C26.0021 8.97168 29.4416 10.211 32.1501 12.4613C33.3121 13.4267 34.3228 14.5619 35.154 15.8357C35.9852 17.1091 36.6178 18.4912 37.0338 19.9436C37.9056 22.9868 37.7863 26.3093 36.6976 29.2989C35.5714 32.3912 33.5156 34.9791 30.7523 36.7827C28.2843 38.3935 25.429 39.245 22.495 39.245ZM22.4652 10.2748C19.7841 10.2748 17.1748 11.0531 14.9193 12.5253C9.80477 15.8636 7.49763 22.048 9.17817 27.9144C9.55815 29.2409 10.1362 30.5041 10.8964 31.6688C11.6565 32.8333 12.5801 33.871 13.6418 34.753C16.1168 36.8093 19.2606 37.9416 22.494 37.9419C22.4942 37.9419 22.4948 37.9419 22.4949 37.9419C25.1755 37.942 27.7842 37.1638 30.04 35.6914C35.1545 32.3531 37.4617 26.1687 35.781 20.3024C35.4008 18.9753 34.8227 17.7121 34.0627 16.548C33.3026 15.3834 32.379 14.3457 31.3174 13.4638C28.8422 11.4073 25.6984 10.2748 22.4652 10.2748Z" fill="#E58C71"/>
<path d="M22.4949 39.2452C22.4946 39.2452 22.4944 39.2452 22.4941 39.2452C18.957 39.245 15.5175 38.0057 12.8092 35.7556C12.6359 35.6117 12.5493 35.3885 12.5801 35.1655C12.6109 34.9423 12.7545 34.7509 12.9602 34.6593C16.6747 33.0028 20.8387 30.6909 25.0023 27.9735C29.1653 25.2563 32.9577 22.3749 35.9695 19.6408C36.1364 19.4894 36.3697 19.4349 36.5859 19.4966C36.8024 19.5582 36.9719 19.7274 37.0338 19.9438C37.9057 22.987 37.7864 26.3096 36.6976 29.2991C35.5716 32.3914 33.5157 34.9793 30.7524 36.7829C28.2844 38.3937 25.429 39.2452 22.4949 39.2452ZM14.4814 35.3974C16.809 37.0445 19.616 37.9418 22.4942 37.9421C22.4943 37.9421 22.4949 37.9421 22.4951 37.9421C25.1757 37.9422 27.7844 37.164 30.0402 35.6916C34.8571 32.5476 37.1839 26.8794 36.0342 21.3294C33.1154 23.8897 29.5697 26.5486 25.7146 29.0648C21.8595 31.581 17.999 33.7562 14.4814 35.3974Z" fill="#E58C71"/>
<path d="M3.3665 16.5069C1.80965 16.5069 0.542969 15.2402 0.542969 13.6834C0.542969 12.1265 1.80965 10.8599 3.3665 10.8599C4.92335 10.8599 6.19002 12.1265 6.19002 13.6834C6.19002 15.2402 4.92335 16.5069 3.3665 16.5069ZM3.3665 12.163C2.52813 12.163 1.84614 12.845 1.84614 13.6834C1.84614 14.5218 2.52813 15.2038 3.3665 15.2038C4.20487 15.2038 4.88686 14.5218 4.88686 13.6834C4.88686 12.845 4.20487 12.163 3.3665 12.163Z" fill="#E58C71"/>
<path d="M15.8552 6.73303C13.9989 6.73303 12.4886 5.22277 12.4886 3.36651C12.4886 1.51026 13.9989 0 15.8552 0C17.7114 0 19.2217 1.51026 19.2217 3.36651C19.2217 5.22277 17.7114 6.73303 15.8552 6.73303ZM15.8552 1.30317C14.7174 1.30317 13.7918 2.22874 13.7918 3.36651C13.7918 4.50429 14.7174 5.42986 15.8552 5.42986C16.9929 5.42986 17.9185 4.50429 17.9185 3.36651C17.9185 2.22874 16.9929 1.30317 15.8552 1.30317Z" fill="#E58C71"/>
<path d="M45.7195 21.9365C44.7614 21.9365 43.9819 21.157 43.9819 20.199C43.9819 19.2409 44.7614 18.4614 45.7195 18.4614C46.6775 18.4614 47.457 19.2409 47.457 20.199C47.457 21.157 46.6775 21.9365 45.7195 21.9365ZM45.7195 19.7646C45.4799 19.7646 45.2851 19.9594 45.2851 20.199C45.2851 20.4385 45.4799 20.6334 45.7195 20.6334C45.9591 20.6334 46.1539 20.4385 46.1539 20.199C46.1539 19.9594 45.9591 19.7646 45.7195 19.7646Z" fill="#E58C71"/>
<path d="M14.7692 48C14.1105 48 13.5746 47.4641 13.5746 46.8054C13.5746 46.1468 14.1105 45.6108 14.7692 45.6108C15.4278 45.6108 15.9637 46.1468 15.9637 46.8054C15.9637 47.4641 15.4278 48 14.7692 48ZM14.7692 46.6968C14.7093 46.6968 14.6606 46.7455 14.6606 46.8054C14.6606 46.8654 14.7093 46.914 14.7692 46.914C14.829 46.914 14.8778 46.8654 14.8778 46.8054C14.8778 46.7455 14.829 46.6968 14.7692 46.6968Z" fill="#E58C71"/>
<path d="M40.2896 48.0002C38.1339 48.0002 36.3801 46.2464 36.3801 44.0907C36.3801 41.9349 38.1339 40.1812 40.2896 40.1812C42.4454 40.1812 44.1991 41.9349 44.1991 44.0907C44.1991 46.2464 42.4454 48.0002 40.2896 48.0002ZM40.2896 41.4843C38.8526 41.4843 37.6833 42.6536 37.6833 44.0907C37.6833 45.5277 38.8526 46.697 40.2896 46.697C41.7267 46.697 42.896 45.5277 42.896 44.0907C42.896 42.6536 41.7267 41.4843 40.2896 41.4843Z" fill="#E58C71"/>
<path d="M36.4827 21.9197C36.3403 21.9197 36.1971 21.8734 36.0772 21.7778C30.303 17.1779 24.4023 15.3977 20.4692 14.7144C16.1954 13.9718 13.251 14.3261 13.2218 14.3296C12.8646 14.3748 12.5391 14.1215 12.4941 13.7647C12.449 13.4079 12.7014 13.0821 13.0582 13.0368C13.1839 13.0208 16.1862 12.6547 20.6388 13.4212C24.7357 14.1265 30.8806 15.972 36.8892 20.7586C37.1707 20.9827 37.2172 21.3927 36.9929 21.6742C36.8641 21.8357 36.6744 21.9197 36.4827 21.9197Z" fill="#E58C71"/>
<path d="M35.5566 28.8116C35.3904 28.8116 35.224 28.7484 35.097 28.6219C29.8521 23.4029 23.0894 21.5074 18.3397 20.8364C13.1753 20.1067 9.23107 20.6237 9.19186 20.6289C8.83425 20.6768 8.50705 20.4272 8.45883 20.0705C8.41062 19.7139 8.66061 19.3857 9.01724 19.3375C9.1847 19.3149 13.1809 18.7912 18.522 19.5459C23.4676 20.2447 30.5172 22.2263 36.0162 27.6981C36.2713 27.9519 36.2723 28.3644 36.0185 28.6195C35.8911 28.7476 35.7238 28.8116 35.5566 28.8116Z" fill="#E58C71"/>
<path d="M30.5161 36.0543C30.3338 36.0543 30.1526 35.9784 30.0238 35.8299C25.6817 30.8292 20.0106 28.6107 16.0178 27.6302C11.6813 26.5653 8.35769 26.6894 8.32489 26.6911C7.96782 26.7051 7.6618 26.4269 7.6467 26.0672C7.63161 25.7077 7.91103 25.4041 8.27048 25.3891C8.41329 25.3832 11.8139 25.256 16.3286 26.3647C20.5047 27.3902 26.4414 29.7166 31.0078 34.9756C31.2438 35.2473 31.2147 35.6588 30.943 35.8947C30.8196 36.0018 30.6675 36.0543 30.5161 36.0543Z" fill="#E58C71"/>
</svg>
